<svg width="73" height="65" viewBox="0 0 73 65" fill="none" xmlns="http://www.w3.org/2000/svg">
<path d="M2.304 53.232V18.544C2.304 16.4107 3.02933 14.7467 4.48 13.552C5.93067 12.3573 7.91467 11.76 10.432 11.76C12.9493 11.76 14.8907 12.3147 16.256 13.424C17.664 14.5333 18.368 16.1547 18.368 18.288V48.56C18.368 49.456 18.5387 50.096 18.88 50.48C19.264 50.8213 19.904 50.992 20.8 50.992C20.8 53.424 19.4347 54.64 16.704 54.64C14.4427 54.64 13.312 53.168 13.312 50.224V38H7.36V47.984L7.616 54C6.16533 54.2133 4.736 54.32 3.328 54.32C2.64533 54.32 2.304 53.9573 2.304 53.232ZM7.36 18.544V33.776H13.312V18.544C13.312 17.7333 13.0347 17.1147 12.48 16.688C11.9253 16.2187 11.2 15.984 10.304 15.984C9.408 15.984 8.68267 16.2187 8.128 16.688C7.616 17.1147 7.36 17.7333 7.36 18.544Z" fill="#F2F2F2"/>
<path d="M65.248 38.576C64.096 38.576 62.944 38.6827 61.792 38.896C61.4507 37.7013 61.28 36.528 61.28 35.376C61.28 34.6933 61.5787 34.352 62.176 34.352H70.304V48.56C70.304 49.456 70.4747 50.096 70.816 50.48C71.1573 50.864 71.776 51.056 72.672 51.056C72.7147 52.1653 72.416 53.04 71.776 53.68C71.1787 54.32 70.304 54.64 69.152 54.64C67.36 54.64 66.208 53.9787 65.696 52.656C64.5013 53.9787 62.8587 54.64 60.768 54.64C56.416 54.64 54.24 52.592 54.24 48.496V18.544C54.24 16.4107 54.9653 14.7467 56.416 13.552C57.8667 12.3573 59.808 11.76 62.24 11.76C64.7147 11.76 66.6773 12.3147 68.128 13.424C69.5787 14.4907 70.304 15.8987 70.304 17.648V24.944C70.304 25.712 69.7493 26.2453 68.64 26.544C68.0427 26.7147 67.4453 26.8 66.848 26.8C66.2507 26.8 65.6533 26.736 65.056 26.608C65.184 25.584 65.248 24.496 65.248 23.344V18.544C65.248 17.7333 64.9707 17.1147 64.416 16.688C63.8613 16.2187 63.136 15.984 62.24 15.984C61.344 15.984 60.6187 16.2187 60.064 16.688C59.552 17.1147 59.296 17.7333 59.296 18.544V48.112C59.296 49.648 60.064 50.416 61.6 50.416C63.1787 50.416 64.3947 49.6693 65.248 48.176V38.576Z" fill="#F2F2F2"/>
<rect x="36.5" y="23" width="6.17285" height="6.17285" transform="rotate(45 36.5 23)" fill="#D9B471"/>
<rect x="36.5" y="33.2703" width="6.17285" height="6.17285" transform="rotate(45 36.5 33.2703)" fill="#D9B471"/>
<rect x="31.3649" y="28.1351" width="6.17285" height="6.17285" transform="rotate(45 31.3649 28.1351)" fill="#D9B471"/>
<rect x="41.6351" y="28.1351" width="6.17285" height="6.17285" transform="rotate(45 41.6351 28.1351)" fill="#D9B471"/>
</svg>
