<svg width="50" height="50" viewBox="0 0 50 50" fill="none" xmlns="http://www.w3.org/2000/svg">
<g clip-path="url(#clip0)">
<path d="M48.112 20.6532L27.7175 20.6523C26.8169 20.6523 26.0869 21.3821 26.0869 22.2827V28.7979C26.0869 29.6982 26.8169 30.4283 27.7174 30.4283H39.2023C37.9447 33.6921 35.5975 36.4254 32.6027 38.1621L37.4999 46.6396C45.3556 42.0963 49.9999 34.1247 49.9999 25.2011C49.9999 23.9305 49.9062 23.0222 49.7189 21.9994C49.5766 21.2224 48.902 20.6532 48.112 20.6532Z" fill="#D9B471"/>
<path d="M24.9999 40.2174C19.3794 40.2174 14.4728 37.1465 11.8375 32.6022L3.36035 37.4884C7.67432 44.9651 15.7558 50 24.9999 50C29.5348 50 33.8138 48.779 37.4999 46.6512V46.6395L32.6027 38.162C30.3627 39.4612 27.7705 40.2174 24.9999 40.2174Z" fill="#D9B471"/>
<path d="M37.5 46.6512V46.6396L32.6028 38.162C30.3628 39.4611 27.7708 40.2174 25 40.2174V50C29.5349 50 33.8141 48.779 37.5 46.6512Z" fill="#D9B471"/>
<path d="M9.78262 25C9.78262 22.2296 10.5387 19.6377 11.8376 17.3978L3.36045 12.5116C1.2209 16.1861 0 20.4535 0 25C0 29.5465 1.2209 33.8139 3.36045 37.4884L11.8376 32.6023C10.5387 30.3623 9.78262 27.7704 9.78262 25Z" fill="#D9B471"/>
<path d="M24.9999 9.78262C28.665 9.78262 32.0316 11.085 34.6612 13.2513C35.31 13.7856 36.2528 13.7471 36.8471 13.1528L41.4633 8.53662C42.1375 7.8624 42.0895 6.75879 41.3692 6.13399C36.9635 2.31182 31.2311 0 24.9999 0C15.7558 0 7.67432 5.03486 3.36035 12.5116L11.8375 17.3978C14.4728 12.8535 19.3794 9.78262 24.9999 9.78262Z" fill="#D9B471"/>
<path d="M34.6613 13.2513C35.3101 13.7856 36.253 13.7471 36.8472 13.1528L41.4634 8.53662C42.1375 7.8624 42.0895 6.75879 41.3693 6.13398C36.9636 2.31172 31.2312 0 25 0V9.78262C28.665 9.78262 32.0317 11.085 34.6613 13.2513Z" fill="#D9B471"/>
</g>
<defs>
<clipPath id="clip0">
<rect width="50" height="50" fill="white"/>
</clipPath>
</defs>
</svg>
